<?xml version="1.0" encoding="UTF-8"?>
<svg width="66.946mm" height="9.426mm" version="1.1" viewBox="0 0 66.946 9.426" xmlns="http://www.w3.org/2000/svg" xmlns:osb="http://www.openswatchbook.org/uri/2009/osb">
 <g transform="translate(-39.82 -60.539)">
  <path d="m39.824 60.539s-0.14318 0.61738 1.163 2.272c3.6055 4.1483 7.2638 7.931 12.666 7.0159 3.8929-0.71902 8.7408-3.3834 12.675-2.5525 2.9283 0.61841 4.4234 1.5153 6.4204 1.4698 3.7182-0.08478 7.1331-2.4937 10.78-2.88 3.0487-0.32293 5.9752 0.2337 10.287 1.4271 3.111 0.86104 8.1109 0.01687 9.6319-1.0004 1.5211-1.0173 3.1626-1.9167 3.3184-3.0176-0.42966 0.7896-1.6536 1.6154-3.2853 2.3133s-5.1157 0.9691-8.5682-0.60624c-3.6297-1.6562-5.5765-2.001-8.4688-1.9082-4.7365 0.15195-10.252 4.1582-13.64 4.0076-3.4074-0.15145-4.3594-1.4542-8.177-1.845-3.0933-0.3167-7.4143 1.2072-11.519 1.6519s-8.0948-1.2928-11.395-4.0882c-0.6043-0.52838-1.477-1.2991-1.8878-2.2595z" color="#000000" color-rendering="auto" dominant-baseline="auto" fill="#4459c2" image-rendering="auto" shape-rendering="auto" solid-color="#000000" stop-color="#000000" style="font-feature-settings:normal;font-variant-alternates:normal;font-variant-caps:normal;font-variant-east-asian:normal;font-variant-ligatures:normal;font-variant-numeric:normal;font-variant-position:normal;font-variation-settings:normal;inline-size:0;isolation:auto;mix-blend-mode:darken;shape-margin:0;shape-padding:0;text-decoration-color:#000000;text-decoration-line:none;text-decoration-style:solid;text-indent:0;text-orientation:mixed;text-transform:none;white-space:normal"/>
 </g>
</svg>
